<svg xmlns="http://www.w3.org/2000/svg" xmlns:xlink="http://www.w3.org/1999/xlink" width="500" zoomAndPan="magnify" viewBox="0 0 375 374.999991" height="500" preserveAspectRatio="xMidYMid meet" version="1.0"><defs><g/></defs><g fill="#ec4899" fill-opacity="1"><g transform="translate(34.988325, 216.357759)"><g><path d="M 0.421875 -8.140625 L -13.625 -34.953125 L -14.03125 -34.734375 L -20.59375 -39.328125 L -24.125 -55 L -9.25 -62.796875 L 11.640625 -50.015625 L 1.890625 -68.625 L 15.671875 -75.84375 L 22.046875 -71.390625 L 46.640625 -24.421875 L 34.234375 -17.921875 L 8.9375 -33.296875 L 20.6875 -10.84375 L 6.609375 -3.453125 Z M 12.53125 -16 L -1.390625 -42.578125 L 28.203125 -24.203125 L 38.546875 -29.625 L 15.375 -73.875 L 4 -67.921875 L 15.578125 -45.796875 L -9.296875 -60.953125 L -22.421875 -54.078125 L -19.453125 -41.21875 L -16.109375 -42.96875 L 1.140625 -10.03125 Z M 12.53125 -16 "/></g></g></g><g fill="#ec4899" fill-opacity="1"><g transform="translate(80.743025, 192.456879)"><g><path d="M 8.921875 -10.359375 L 1.578125 -32.90625 L -22.03125 -55.84375 L -4.953125 -61.40625 L 3.796875 -51.390625 L 5.140625 -64.6875 L 21.703125 -70.078125 L 27.578125 -64.234375 L 21.78125 -32.390625 L 29.234375 -9.5 L 14.265625 -4.640625 Z M 22.03125 -15.953125 L 14.796875 -38.15625 L 20 -67.8125 L 6.578125 -63.453125 L 5.015625 -47.640625 L -5.46875 -59.53125 L -18.96875 -55.15625 L 2.890625 -33.8125 L 9.984375 -12.03125 Z M 22.03125 -15.953125 "/></g></g></g><g fill="#ec4899" fill-opacity="1"><g transform="translate(119.915385, 179.118939)"><g><path d="M -1.953125 -6.703125 L 2.265625 -39.71875 L -1.21875 -44.546875 L 0.359375 -60.703125 L 26.53125 -64.78125 L 30.46875 -59.40625 L 54.234375 -8.46875 L 36.046875 -5.625 L 32.765625 -12.125 L 18.65625 -9.921875 L 18.015625 -2.8125 L 2.578125 -0.40625 Z M 13.375 -10.546875 L 14.046875 -17.828125 L 31 -20.46875 L 33.875 -13.75 L 47.625 -15.890625 L 25.546875 -63 L 1.859375 -59.296875 L 0.625 -46.1875 L 4.796875 -46.84375 L 0.046875 -8.46875 Z M 16.96875 -53.3125 L 26.78125 -30.5625 L 14.890625 -28.703125 Z M 24.4375 -31.640625 L 20.96875 -39.828125 L 20.265625 -31 Z M 24.4375 -31.640625 "/></g></g></g><g fill="#ec4899" fill-opacity="1"><g transform="translate(166.436936, 171.981387)"><g><path d="M 8.78125 -7.328125 L 8.625 -37.15625 L 3.140625 -37.125 L -0.21875 -44.03125 L 3.75 -59.9375 L 21.8125 -60.03125 L 22.328125 -62.109375 L 36.890625 -62.1875 L 40.328125 -55.1875 L 35.84375 -37.296875 L 27.671875 -37.25 L 27.859375 -0.140625 L 12.484375 -0.0625 Z M 22.953125 -45.65625 L 31.390625 -45.703125 L 34.921875 -60.640625 L 23.515625 -60.59375 L 22.96875 -58.421875 L 5.09375 -58.34375 L 1.828125 -45.5625 L 10.09375 -45.59375 L 10.28125 -8.40625 L 23.140625 -8.46875 Z M 22.953125 -45.65625 "/></g></g></g><g fill="#ec4899" fill-opacity="1"><g transform="translate(202.420297, 171.456585)"><g><path d="M 4.921875 -6.421875 L 8.859375 -36.4375 L 8.3125 -36.515625 L 5.734375 -43.734375 L 11.796875 -58.890625 L 32.015625 -56.25 L 32.8125 -58.21875 L 47.15625 -56.34375 L 49.4375 -48.796875 L 42.875 -31.984375 L 42.265625 -32.0625 L 43.734375 -26.796875 L 38.328125 -13.1875 L 25.328125 -14.890625 L 22.984375 3.015625 L 7.390625 0.96875 Z M 19.25 -5.90625 L 21.625 -24 L 35 -22.25 L 39.296875 -32.921875 L 23.078125 -35.046875 L 24.09375 -42.78125 L 39.328125 -40.78125 L 45.015625 -55.09375 L 34.0625 -56.515625 L 33.0625 -54.46875 L 12.828125 -57.125 L 7.96875 -44.890625 L 11.625 -44.40625 L 6.78125 -7.53125 Z M 19.25 -5.90625 "/></g></g></g><g fill="#ec4899" fill-opacity="1"><g transform="translate(240.988354, 176.5471)"><g><path d="M 5.75 -5.65625 L 13.4375 -34.9375 L 12.90625 -35.078125 L 11.1875 -42.671875 L 19.1875 -56.921875 L 34.140625 -53 L 35.796875 -44.859375 L 28.28125 -16.1875 L 35.671875 -14.25 L 37.171875 -6.8125 L 29.203125 7.65625 L 7.296875 1.90625 Z M 27.15625 -1.53125 L 33.40625 -13.0625 L 23.25 -15.734375 L 32.6875 -51.71875 L 19.90625 -55.0625 L 13.375 -43.578125 L 17.203125 -42.578125 L 7.78125 -6.609375 Z M 27.15625 -1.53125 "/></g></g></g><g fill="#ec4899" fill-opacity="1"><g transform="translate(271.257118, 184.497481)"><g><path d="M 6.609375 -4.8125 L 17.265625 -33.265625 L 16.75 -33.453125 L 15.921875 -41.234375 L 25.234375 -54.53125 L 39.859375 -49.046875 L 40.828125 -41.40625 L 22.21875 8.3125 L 7.40625 2.765625 Z M 20.609375 -1.203125 L 38.125 -47.984375 L 25.75 -52.625 L 18.234375 -41.8125 L 21.6875 -40.515625 L 8.65625 -5.6875 Z M 20.609375 -1.203125 "/></g></g></g><g fill="#ec4899" fill-opacity="1"><g transform="translate(294.270174, 192.014994)"><g><path d="M 2.53125 -6.28125 L 29.3125 -23.6875 L 28.484375 -52.71875 L 44.34375 -44.265625 L 43.640625 -30.5 L 54.890625 -38.65625 L 70.4375 -30.375 L 69.828125 -22.546875 L 46.40625 -7.4375 L 47.0625 17.53125 L 46.546875 24.796875 L 30.765625 16.390625 L 31 -0.078125 L 17.765625 9.46875 L 1.984375 1.0625 Z M 17.890625 0.0625 L 33.078125 -10.875 L 32.96875 8.09375 L 45.171875 14.59375 L 44.703125 -15.6875 L 67.296875 -30.21875 L 54.9375 -36.8125 L 41.9375 -27.328125 L 42.640625 -43.359375 L 30.125 -50.03125 L 30.84375 -22.953125 L 5.6875 -6.4375 Z M 17.890625 0.0625 "/></g></g></g></svg>